<svg width="73" height="36" viewBox="0 0 73 36" fill="none" xmlns="http://www.w3.org/2000/svg">
<g clip-path="url(#clip0_2969_44316)">
<path d="M6.98278 24.4606V20.1802C6.98278 19.1017 7.31981 18.6972 8.39833 18.6972H16.7569C17.3804 18.6972 17.8185 19.0174 17.8185 19.6409C17.8185 20.2644 17.4141 20.5846 16.7569 20.5846H9.78019C9.66222 20.5846 9.61167 20.652 9.61167 20.77V21.343H16.6726C17.313 21.343 17.7343 21.6294 17.7343 22.2698C17.7343 22.9102 17.313 23.1967 16.6726 23.1967H9.59481V23.8707C9.59481 23.9887 9.64537 24.0393 9.76333 24.0393H16.9759C17.6163 24.0393 18.0376 24.3594 18.0376 24.9998C18.0376 25.6402 17.6163 25.9435 16.9759 25.9435H8.39833C7.31981 25.9435 6.98278 25.5391 6.98278 24.4606ZM13.1843 11.8891V12.8328C13.1843 15.765 10.2352 17.6861 6.62889 18.495C5.95481 18.6467 5.3313 18.4444 5.14593 17.7535C4.9437 17.0626 5.29759 16.557 5.98852 16.3717C8.14556 15.8156 10.6228 14.9224 10.6228 13.1698V12.9844C10.6228 12.7485 10.5554 12.6474 10.3194 12.6474H6.51093C5.80315 12.6474 5.34815 12.3272 5.34815 11.6194C5.34815 10.8948 5.80315 10.5746 6.51093 10.5746H11.6844C12.7124 10.5746 13.1843 11.0633 13.1843 11.8891ZM15.1222 16.8435V11.5183C15.1222 10.7263 15.6783 10.305 16.4704 10.305C17.2624 10.305 17.8185 10.7263 17.8185 11.5183V12.917H18.9813C19.6891 12.917 20.1946 13.2709 20.1946 14.0293C20.1946 14.7876 19.6891 15.1415 18.9813 15.1415H17.8185V16.8435C17.8185 17.6356 17.2624 18.0737 16.4704 18.0737C15.6783 18.0737 15.1222 17.6356 15.1222 16.8435ZM32.02 24.6965V11.552C32.02 10.7431 32.5761 10.305 33.3682 10.305C34.1771 10.305 34.7163 10.7431 34.7163 11.552V24.6965C34.7163 25.5054 34.1771 25.9435 33.3682 25.9435C32.5761 25.9435 32.02 25.5054 32.02 24.6965ZM30.0315 16.4728C30.0315 19.8263 28.6159 22.017 25.6332 22.017C22.6504 22.017 21.2348 19.8263 21.2348 16.4728C21.2348 13.1193 22.6504 10.9285 25.6332 10.9285C28.6159 10.9285 30.0315 13.1193 30.0315 16.4728ZM25.6332 19.7589C26.9813 19.7589 27.4026 18.2928 27.4026 16.4728C27.4026 14.6528 26.9813 13.1867 25.6332 13.1867C24.285 13.1867 23.8637 14.6528 23.8637 16.4728C23.8637 18.2928 24.285 19.7589 25.6332 19.7589ZM47.6747 20.5846H40.5464C39.8723 20.5846 39.5016 20.315 39.5016 19.6409C39.5016 18.9669 39.8723 18.6972 40.5464 18.6972H48.9555C50.0508 18.6972 50.3373 18.9669 50.3373 20.0454V21.7474C50.3373 22.8428 49.9834 23.163 48.8881 23.163H42.1473C42.0799 23.163 42.0294 23.1967 42.0294 23.2809V23.9381C42.0294 24.0224 42.0799 24.0393 42.1473 24.0393H49.6127C50.2868 24.0393 50.6744 24.3257 50.6744 24.9998C50.6744 25.6739 50.2868 25.9435 49.6127 25.9435H40.934C39.8386 25.9435 39.5016 25.6233 39.5016 24.528V22.708C39.5016 21.6126 39.8218 21.3093 40.9171 21.3093H47.6747C47.759 21.3093 47.8095 21.2756 47.8095 21.1913V20.7026C47.8095 20.6183 47.759 20.5846 47.6747 20.5846ZM45.6694 17.1806C44.237 17.4502 42.636 17.5344 41.2036 17.5344H39.5353C38.4231 17.5344 37.867 16.9952 37.867 15.883V12.2261C37.867 11.1307 38.4231 10.5746 39.5353 10.5746H44.6583C45.3323 10.5746 45.7873 10.9454 45.7873 11.6194C45.7873 12.2935 45.3323 12.6643 44.6583 12.6643H40.6644C40.4958 12.6643 40.4621 12.7148 40.4621 12.8833V15.2089C40.4621 15.3774 40.5127 15.4448 40.6812 15.4448H41.389C42.754 15.4448 44.2875 15.31 45.366 15.1246C45.9727 15.0067 46.512 15.192 46.6299 15.8661C46.7647 16.557 46.3097 17.0626 45.6694 17.1806ZM47.641 16.8435V11.5183C47.641 10.7263 48.1971 10.305 48.9892 10.305C49.7812 10.305 50.3373 10.7263 50.3373 11.5183V12.917H51.5001C52.2079 12.917 52.7134 13.2709 52.7134 14.0293C52.7134 14.7876 52.2079 15.1415 51.5001 15.1415H50.3373V16.8435C50.3373 17.6356 49.7812 18.0737 48.9892 18.0737C48.1971 18.0737 47.641 17.6356 47.641 16.8435ZM66.0218 25.8424H57.9835C56.8881 25.8424 56.4499 25.438 56.4499 24.3426V21.3261C56.4499 20.2307 56.8881 19.8431 57.9835 19.8431H66.0218C67.1172 19.8431 67.5385 20.2307 67.5385 21.3261V24.3426C67.5385 25.438 67.1172 25.8424 66.0218 25.8424ZM60.3259 18.5961C59.1968 18.7815 58.2194 18.8826 56.9555 18.8826H55.9949C54.849 18.8826 54.3603 18.3939 54.3603 17.2985V15.3437C54.3603 14.2483 54.849 13.7428 55.9949 13.7428H58.0509C58.2194 13.7428 58.2699 13.6922 58.2699 13.5237V12.8159C58.2699 12.6474 58.2194 12.6137 58.0509 12.6137H55.6073C54.9333 12.6137 54.4446 12.2767 54.4446 11.6194C54.4446 10.9454 54.9333 10.6083 55.6073 10.6083H59.062C60.2248 10.6083 60.6966 11.0802 60.6966 12.2093V14.063C60.6966 15.192 60.2248 15.6807 59.062 15.6807H56.9892C56.8207 15.6807 56.787 15.7144 56.787 15.883V16.7256C56.787 16.8941 56.8207 16.9278 56.9892 16.9278H57.2925C58.2025 16.9278 59.062 16.8098 59.9888 16.7087C60.6292 16.6413 61.2022 16.7424 61.3033 17.4165C61.4044 18.0906 60.9662 18.495 60.3259 18.5961ZM61.8257 17.8378V11.6026C61.8257 10.878 62.2638 10.4735 62.9885 10.4735C63.7131 10.4735 64.1512 10.878 64.1512 11.6026V13.5743H65.1961V11.4509C65.1961 10.7263 65.6511 10.305 66.3757 10.305C67.1003 10.305 67.5385 10.7263 67.5385 11.4509V17.8715C67.5385 18.5961 67.1003 19.0006 66.3757 19.0006C65.6511 19.0006 65.1961 18.5961 65.1961 17.8715V15.5628H64.1512V17.8378C64.1512 18.5624 63.7299 18.9669 62.9885 18.9669C62.2638 18.9669 61.8257 18.5624 61.8257 17.8378ZM64.6736 21.8654H59.3148C59.2136 21.8654 59.1462 21.9328 59.1462 22.0339V23.6517C59.1462 23.7528 59.2136 23.8202 59.3148 23.8202H64.6736C64.7748 23.8202 64.8422 23.7528 64.8422 23.6517V22.0339C64.8422 21.9328 64.7748 21.8654 64.6736 21.8654Z" fill="white"/>
</g>
<defs>
<clipPath id="clip0_2969_44316">
<rect width="73" height="35" fill="white" transform="translate(0 0.5)"/>
</clipPath>
</defs>
</svg>
