<svg width="56" height="28" viewBox="0 0 56 28" fill="none" xmlns="http://www.w3.org/2000/svg">
<g clip-path="url(#clip0_2969_44336)">
<path d="M4.37349 18.9138V15.5077C4.37349 14.6495 4.64168 14.3277 5.49989 14.3277H12.151C12.6472 14.3277 12.9958 14.5825 12.9958 15.0786C12.9958 15.5748 12.674 15.8296 12.151 15.8296H6.59948C6.50561 15.8296 6.46538 15.8832 6.46538 15.9771V16.433H12.084C12.5935 16.433 12.9288 16.661 12.9288 17.1705C12.9288 17.6801 12.5935 17.908 12.084 17.908H6.45197V18.4444C6.45197 18.5383 6.4922 18.5785 6.58607 18.5785H12.3254C12.8349 18.5785 13.1702 18.8333 13.1702 19.3429C13.1702 19.8524 12.8349 20.0938 12.3254 20.0938H5.49989C4.64168 20.0938 4.37349 19.772 4.37349 18.9138ZM9.30821 8.91023V9.66117C9.30821 11.9944 6.96153 13.5231 4.09189 14.1668C3.55551 14.2875 3.05935 14.1265 2.91185 13.5768C2.75093 13.027 3.03254 12.6247 3.58233 12.4772C5.29875 12.0347 7.26995 11.324 7.26995 9.92936V9.78185C7.26995 9.59412 7.21632 9.51366 7.02858 9.51366H3.99802C3.43482 9.51366 3.07276 9.25888 3.07276 8.69568C3.07276 8.11907 3.43482 7.86429 3.99802 7.86429H8.11476C8.93274 7.86429 9.30821 8.25316 9.30821 8.91023ZM10.8503 12.8526V8.61522C10.8503 7.98497 11.2928 7.64973 11.9231 7.64973C12.5533 7.64973 12.9958 7.98497 12.9958 8.61522V9.72822H13.9211C14.4843 9.72822 14.8866 10.0098 14.8866 10.6132C14.8866 11.2167 14.4843 11.4983 13.9211 11.4983H12.9958V12.8526C12.9958 13.4829 12.5533 13.8315 11.9231 13.8315C11.2928 13.8315 10.8503 13.4829 10.8503 12.8526ZM24.2964 19.1015V8.64204C24.2964 7.99838 24.7389 7.64973 25.3692 7.64973C26.0128 7.64973 26.4419 7.99838 26.4419 8.64204V19.1015C26.4419 19.7452 26.0128 20.0938 25.3692 20.0938C24.7389 20.0938 24.2964 19.7452 24.2964 19.1015ZM22.7141 12.5576C22.7141 15.2261 21.5877 16.9694 19.2142 16.9694C16.8407 16.9694 15.7143 15.2261 15.7143 12.5576C15.7143 9.88913 16.8407 8.14589 19.2142 8.14589C21.5877 8.14589 22.7141 9.88913 22.7141 12.5576ZM19.2142 15.1725C20.287 15.1725 20.6222 14.0059 20.6222 12.5576C20.6222 11.1094 20.287 9.94277 19.2142 9.94277C18.1414 9.94277 17.8062 11.1094 17.8062 12.5576C17.8062 14.0059 18.1414 15.1725 19.2142 15.1725ZM36.7534 15.8296H31.0811C30.5447 15.8296 30.2497 15.615 30.2497 15.0786C30.2497 14.5422 30.5447 14.3277 31.0811 14.3277H37.7725C38.6441 14.3277 38.8721 14.5422 38.8721 15.4005V16.7548C38.8721 17.6264 38.5905 17.8812 37.7189 17.8812H32.355C32.3014 17.8812 32.2612 17.908 32.2612 17.9751V18.4981C32.2612 18.5651 32.3014 18.5785 32.355 18.5785H38.2955C38.8318 18.5785 39.1403 18.8065 39.1403 19.3429C39.1403 19.8792 38.8318 20.0938 38.2955 20.0938H31.3895C30.5179 20.0938 30.2497 19.839 30.2497 18.9674V17.5192C30.2497 16.6475 30.5045 16.4062 31.3761 16.4062H36.7534C36.8204 16.4062 36.8606 16.3794 36.8606 16.3123V15.9234C36.8606 15.8564 36.8204 15.8296 36.7534 15.8296ZM35.1576 13.1208C34.0178 13.3354 32.7439 13.4024 31.6041 13.4024H30.2766C29.3915 13.4024 28.949 12.9733 28.949 12.0883V9.17842C28.949 8.3068 29.3915 7.86429 30.2766 7.86429H34.3531C34.8894 7.86429 35.2515 8.1593 35.2515 8.69568C35.2515 9.23206 34.8894 9.52707 34.3531 9.52707H31.175C31.0409 9.52707 31.0141 9.5673 31.0141 9.7014V11.5519C31.0141 11.686 31.0543 11.7396 31.1884 11.7396H31.7516C32.8378 11.7396 34.058 11.6324 34.9163 11.4849C35.399 11.391 35.8281 11.5385 35.922 12.0749C36.0293 12.6247 35.6672 13.027 35.1576 13.1208ZM36.7265 12.8526V8.61522C36.7265 7.98497 37.1691 7.64973 37.7993 7.64973C38.4296 7.64973 38.8721 7.98497 38.8721 8.61522V9.72822H39.7973C40.3605 9.72822 40.7628 10.0098 40.7628 10.6132C40.7628 11.2167 40.3605 11.4983 39.7973 11.4983H38.8721V12.8526C38.8721 13.4829 38.4296 13.8315 37.7993 13.8315C37.1691 13.8315 36.7265 13.4829 36.7265 12.8526ZM51.3527 20.0133H44.9564C44.0847 20.0133 43.7361 19.6915 43.7361 18.8199V16.4196C43.7361 15.548 44.0847 15.2395 44.9564 15.2395H51.3527C52.2243 15.2395 52.5596 15.548 52.5596 16.4196V18.8199C52.5596 19.6915 52.2243 20.0133 51.3527 20.0133ZM46.8203 14.2472C45.9218 14.3947 45.1441 14.4752 44.1384 14.4752H43.374C42.4622 14.4752 42.0733 14.0863 42.0733 13.2147V11.6592C42.0733 10.7876 42.4622 10.3853 43.374 10.3853H45.01C45.1441 10.3853 45.1843 10.3451 45.1843 10.211V9.64776C45.1843 9.51366 45.1441 9.48684 45.01 9.48684H43.0656C42.5292 9.48684 42.1403 9.21865 42.1403 8.69568C42.1403 8.1593 42.5292 7.89111 43.0656 7.89111H45.8146C46.7398 7.89111 47.1153 8.26657 47.1153 9.16501V10.6401C47.1153 11.5385 46.7398 11.9274 45.8146 11.9274H44.1652C44.0311 11.9274 44.0043 11.9542 44.0043 12.0883V12.7588C44.0043 12.8929 44.0311 12.9197 44.1652 12.9197H44.4066C45.1307 12.9197 45.8146 12.8258 46.5521 12.7454C47.0617 12.6917 47.5176 12.7722 47.598 13.3086C47.6785 13.8449 47.3298 14.1668 46.8203 14.2472ZM48.0137 13.6438V8.68227C48.0137 8.10566 48.3624 7.78383 48.939 7.78383C49.5156 7.78383 49.8642 8.10566 49.8642 8.68227V10.2512H50.6956V8.56158C50.6956 7.98497 51.0577 7.64973 51.6343 7.64973C52.2109 7.64973 52.5596 7.98497 52.5596 8.56158V13.6706C52.5596 14.2472 52.2109 14.5691 51.6343 14.5691C51.0577 14.5691 50.6956 14.2472 50.6956 13.6706V11.8335H49.8642V13.6438C49.8642 14.2204 49.529 14.5422 48.939 14.5422C48.3624 14.5422 48.0137 14.2204 48.0137 13.6438ZM50.2799 16.8487H46.0157C45.9352 16.8487 45.8816 16.9023 45.8816 16.9828V18.2701C45.8816 18.3506 45.9352 18.4042 46.0157 18.4042H50.2799C50.3604 18.4042 50.414 18.3506 50.414 18.2701V16.9828C50.414 16.9023 50.3604 16.8487 50.2799 16.8487Z" fill="white"/>
</g>
<defs>
<clipPath id="clip0_2969_44336">
<rect width="56" height="27" fill="white" transform="translate(0 0.5)"/>
</clipPath>
</defs>
</svg>
