<svg width="77" height="24" viewBox="0 0 77 24" fill="none" xmlns="http://www.w3.org/2000/svg">
<circle cx="12" cy="12" r="9" fill="#2563EB"/>
<path d="M8.5 11.8245L11.0087 14.3333L15.342 10" stroke="white" stroke-width="1.8" stroke-linecap="round" stroke-linejoin="round"/>
<path d="M38.9375 5.91211V18.1621H37.6934V11.8047H36.1758V17.5742H34.959V6.24023H36.1758V10.752H37.6934V5.91211H38.9375ZM33.7422 7.4707C33.7285 10.6973 32.6621 13.582 29.1621 15.5645L28.4102 14.6621C31.1309 13.124 32.2793 11.0391 32.4844 8.53711H28.9297V7.4707H33.7422ZM50.7637 5.91211V12.2148H49.4648V9.07031H46.8809V8.01758H49.4648V5.91211H50.7637ZM50.7637 12.7891V15.8379H44.0508V16.9727H51.1875V18.0117H42.7793V14.8535H49.4785V13.8145H42.752V12.7891H50.7637ZM44.8574 7.375C44.8574 8.93359 45.9785 10.3828 47.8242 10.9707L47.1406 11.9824C45.7939 11.5176 44.7754 10.5947 44.2422 9.42578C43.7021 10.7383 42.6494 11.7705 41.207 12.2695L40.5098 11.2305C42.4238 10.6152 43.5586 9.09766 43.5723 7.375V6.30859H44.8574V7.375ZM62.2891 5.92578V9.5625H64.0391V10.6289H62.2891V14.1699H60.9902V5.92578H62.2891ZM52.5684 12.8027C53.5186 12.8027 54.6191 12.8027 55.7676 12.7617V11.9414C54.373 11.7979 53.4844 11.1416 53.498 10.1504C53.4844 9.0293 54.6465 8.33203 56.4102 8.3457C58.1602 8.33203 59.3223 9.0293 59.3223 10.1504C59.3223 11.1348 58.4473 11.791 57.0664 11.9414V12.7207C58.1602 12.666 59.2676 12.5771 60.293 12.4336L60.4023 13.3633C57.7637 13.8281 54.8652 13.8418 52.7051 13.8418L52.5684 12.8027ZM62.2891 14.7441V18.1621H60.9902V15.7559H54.0996V14.7441H62.2891ZM59.9512 6.96484V7.93555H52.8828V6.96484H55.7676V5.81641H57.0664V6.96484H59.9512ZM56.4102 9.23438C55.3574 9.2207 54.7285 9.5625 54.7285 10.1504C54.7285 10.7246 55.3574 11.0938 56.4102 11.0938C57.4492 11.0938 58.0781 10.7246 58.0781 10.1504C58.0781 9.5625 57.4492 9.2207 56.4102 9.23438ZM74.9629 5.91211V13.1992H73.6641V10.0957H71.3809V9.0293H73.6641V5.91211H74.9629ZM70.8613 13.541C73.4316 13.541 75.0039 14.3887 75.0039 15.8516C75.0039 17.3145 73.4316 18.1484 70.8613 18.1621C68.291 18.1484 66.7051 17.3145 66.7188 15.8516C66.7051 14.3887 68.291 13.541 70.8613 13.541ZM70.8613 14.5527C69.0703 14.5527 68.0039 15.0176 68.0039 15.8516C68.0039 16.6719 69.0703 17.1504 70.8613 17.1367C72.6523 17.1504 73.7188 16.6719 73.7188 15.8516C73.7188 15.0176 72.6523 14.5527 70.8613 14.5527ZM69.1387 8.07227C69.1387 9.63086 70.2461 11.1348 72.0918 11.7637L71.4219 12.7891C70.0479 12.3105 69.0361 11.333 68.5098 10.123C67.9697 11.4971 66.8965 12.5977 65.4336 13.1309L64.75 12.0918C66.6504 11.4355 67.8125 9.78125 67.8125 8.08594V7.8125H65.1602V6.75977H71.7637V7.8125H69.1387V8.07227Z" fill="#2563EB"/>
</svg>
