<svg width="992" height="66" viewBox="0 0 992 66" fill="none" xmlns="http://www.w3.org/2000/svg">
<path d="M0 23C0 10.8497 9.84974 1 22 1H970C982.15 1 992 10.8497 992 23V66H0V23Z" fill="#FB923C"/>
<rect x="719.209" y="31.8491" width="35.7907" height="3.97674" fill="#F97316"/>
<rect x="719.209" y="35.8257" width="3.53488" height="22.093" fill="#F97316"/>
<rect x="732.906" y="35.8257" width="3.53488" height="22.093" fill="#F97316"/>
<rect x="755" y="35.8257" width="3.53488" height="22.093" fill="#FDBA74"/>
<rect x="770.465" y="35.8257" width="3.53488" height="22.093" fill="#FDBA74"/>
<rect x="755" y="31.8491" width="19" height="3.97674" fill="#FDBA74"/>
<rect x="679" y="24.7793" width="16.3488" height="16.1279" fill="#F97316"/>
<rect x="679" y="40.9072" width="16.3488" height="3.97674" fill="#FDBA74"/>
<rect x="695.35" y="40.9072" width="10.6047" height="3.97674" fill="#F97316"/>
<rect x="691.814" y="44.8838" width="3.53488" height="13.2558" fill="#F97316"/>
<rect x="679" y="44.8838" width="3.53488" height="13.2558" fill="#F97316"/>
<rect x="702.418" y="44.8838" width="3.53488" height="13.2558" fill="#F97316"/>
<path d="M737.301 30.1108H743.246H755.049V31.8681H737.301V30.1108Z" fill="#EA580C"/>
<path d="M743.275 30.1108L743.627 21.5H755.664L755.049 30.1108H743.275Z" fill="#FDBA74"/>
<path d="M744.594 29.0562L745.033 22.6421H754.435L753.907 29.0562H744.594Z" fill="#FFEDD5"/>
<path d="M794.481 41.5696C792.96 41.8855 791.713 42.568 790.693 43.6699C789.896 44.5282 789.539 45.2669 789.565 46.0412C789.59 46.7442 789.838 47.2239 790.344 47.571C791.221 48.1582 792.358 48.0821 793.201 47.3852L793.632 47.0211L793.707 47.4364C793.804 47.9222 794.144 48.4289 794.492 48.5884C795.128 48.8793 796.235 48.5493 796.727 47.9073C796.968 47.6017 796.968 47.6017 797.086 47.8011C797.183 47.9706 797.169 48.1548 797.015 48.6507C796.158 51.5723 792.472 54.5954 787.077 56.862C785.954 57.3253 783.08 58.9399 783.664 58.9165C784.087 58.8996 788.873 56.5978 790.505 55.7061C794.057 53.7683 796.886 51.0534 797.472 49.0303L797.625 48.5242L798.22 48.5107C798.572 48.4966 798.863 48.4441 798.94 48.3594C799.319 47.9463 799.303 48.3653 798.907 49.738C797.926 53.1237 795.918 55.9894 793.116 58.04C792.379 58.5796 792.16 58.5091 792.354 58.5829C792.518 58.6478 792.848 58.7241 793.321 58.4093C795.419 57.0092 797.539 54.4554 798.654 52.0131C799.037 51.1612 799.746 48.9291 799.735 48.603C799.727 48.3585 799.847 48.3537 800.088 48.5991C800.569 49.1002 801.544 49.0102 802.107 48.4061L802.428 48.0668L802.582 48.4177C802.669 48.6182 802.797 48.807 802.858 48.8351C803.002 48.9212 803.044 50.1234 802.946 51.0864C802.611 54.2115 801.067 57.079 798.741 58.8963C798.706 58.9169 800.101 58.8256 800.377 58.9166C800.377 58.9166 799.332 59.0767 800.257 58.1317C802.311 56.0294 803.465 53.2489 803.496 50.3706L803.515 49.1761L804.009 49.1564C804.562 49.1342 805.187 48.8338 805.416 48.4675C805.799 47.8808 805.353 47.7967 804.838 48.358C804.556 48.6652 804.427 48.7315 804.055 48.7464C803.692 48.7609 803.549 48.7054 803.299 48.4604C803.007 48.1762 802.995 48.1257 802.963 47.1986C802.93 46.2409 802.929 46.2307 802.689 46.2709C802.498 46.2989 802.422 46.4244 802.297 46.8987C802.137 47.5071 801.833 48.06 801.501 48.3589C800.963 48.8396 800.262 48.3881 800.119 47.4654C800.068 47.1614 800.051 46.6621 800.071 46.3553C800.09 46.0484 800.09 45.7627 800.068 45.7126C799.994 45.5932 799.633 45.6484 799.597 45.7825C799.579 45.8546 799.492 46.2356 799.415 46.6264C799.223 47.5013 798.731 48.1433 798.228 48.1635C797.765 48.182 797.561 47.8331 797.456 46.8272C797.391 46.1157 797.347 46.0052 797.196 46.0112C797.065 46.0165 796.959 46.1737 796.833 46.5869C796.398 48.0021 795.294 48.7298 794.585 48.0644C794.325 47.8198 794.312 47.7488 794.268 46.761C794.238 45.895 794.201 45.7128 794.07 45.6977C793.978 45.6809 793.831 45.799 793.726 45.9563C793.028 47.0657 792.193 47.6806 791.524 47.5748C790.662 47.4358 790.009 46.6254 790.102 45.8055C790.275 44.411 791.952 42.7727 793.866 42.1553C794.764 41.8644 798.106 41.7204 799.474 41.9309C801.287 42.195 802.593 42.6325 803.85 43.4086C805.487 44.4143 806.365 45.6034 806.716 47.2728C807.357 50.3793 805.644 55.3246 802.911 58.2193C802.396 58.7602 802.361 58.9147 802.743 58.8994C803.116 58.8845 804.412 57.3226 805.26 55.8807C807.44 52.1716 808.013 47.7616 806.62 45.3892C805.473 43.4252 802.894 42.0184 799.592 41.5589C798.316 41.3855 795.382 41.3907 794.481 41.5696Z" fill="#EA580C" stroke="#EA580C" stroke-width="0.8"/>
<path d="M813.197 47.3957C812.137 47.6109 811.268 48.0743 810.556 48.8217C810 49.4038 809.751 49.9046 809.769 50.4293C809.786 50.9056 809.958 51.2305 810.311 51.4652C810.921 51.8625 811.713 51.81 812.301 51.3372L812.601 51.0901L812.653 51.3715C812.721 51.7006 812.957 52.0436 813.2 52.1515C813.642 52.348 814.414 52.1236 814.757 51.6882C814.926 51.481 814.926 51.481 815.008 51.616C815.075 51.7308 815.065 51.8556 814.957 52.1917C814.359 54.172 811.789 56.2232 808.028 57.7631C807.245 58.0779 805.242 59.1741 805.649 59.1578C805.943 59.146 809.279 57.5828 810.417 56.9773C812.893 55.6616 814.866 53.8199 815.275 52.4486L815.383 52.1056L815.797 52.0959C816.042 52.0861 816.245 52.0503 816.299 51.9929C816.563 51.7127 816.552 51.9966 816.275 52.927C815.589 55.2218 814.188 57.1651 812.235 58.5567C811.721 58.9229 811.569 58.8752 811.704 58.9251C811.818 58.969 812.047 59.0204 812.377 58.8067C813.84 57.8564 815.318 56.1244 816.097 54.4688C816.365 53.8912 816.86 52.3782 816.852 52.1573C816.847 51.9917 816.931 51.9883 817.098 52.1544C817.433 52.4936 818.112 52.4318 818.505 52.0221L818.729 51.7919L818.836 52.0296C818.897 52.1654 818.985 52.2932 819.028 52.3122C819.128 52.3704 819.157 53.185 819.088 53.8375C818.852 55.9553 817.775 57.8994 816.153 59.1326C816.128 59.1465 817.101 59.0836 817.293 59.1451C817.293 59.1451 816.565 59.2544 817.21 58.6133C818.642 57.1873 819.448 55.3024 819.471 53.3521L819.486 52.5428L819.829 52.529C820.215 52.5136 820.65 52.3095 820.81 52.0611C821.078 51.6633 820.767 51.6067 820.408 51.9874C820.211 52.1957 820.121 52.2408 819.862 52.2512C819.609 52.2613 819.51 52.2238 819.335 52.058C819.132 51.8656 819.124 51.8314 819.102 51.2032C819.08 50.5543 819.079 50.5474 818.912 50.5749C818.779 50.594 818.726 50.6791 818.639 51.0006C818.526 51.4129 818.315 51.7878 818.083 51.9906C817.708 52.3167 817.22 52.0113 817.121 51.3862C817.085 51.1802 817.074 50.842 817.088 50.6341C817.102 50.4261 817.102 50.2326 817.087 50.1986C817.035 50.1177 816.783 50.1554 816.758 50.2463C816.746 50.2952 816.685 50.5534 816.63 50.8183C816.496 51.4112 816.153 51.8466 815.803 51.8606C815.48 51.8736 815.338 51.6373 815.266 50.9558C815.221 50.4737 815.19 50.3989 815.085 50.4031C814.994 50.4068 814.92 50.5134 814.832 50.7935C814.528 51.7527 813.758 52.2466 813.265 51.7963C813.084 51.6308 813.075 51.5827 813.045 50.9134C813.024 50.3266 812.999 50.2032 812.907 50.1931C812.844 50.1818 812.741 50.2619 812.668 50.3686C812.181 51.1208 811.598 51.5381 811.132 51.4669C810.532 51.3734 810.078 50.8248 810.143 50.2691C810.265 49.3241 811.434 48.2128 812.768 47.793C813.393 47.5952 815.722 47.4951 816.675 47.6367C817.938 47.8142 818.847 48.1096 819.722 48.6345C820.863 49.3147 821.474 50.1198 821.716 51.2507C822.162 53.355 820.964 56.7072 819.059 58.6707C818.699 59.0376 818.675 59.1423 818.941 59.1316C819.201 59.1212 820.105 58.0619 820.696 57.0843C822.218 54.5694 822.62 51.5809 821.651 49.9744C820.854 48.6446 819.058 47.6934 816.757 47.3845C815.868 47.268 813.825 47.2737 813.197 47.3957Z" fill="#EA580C" stroke="#EA580C" stroke-width="0.8"/>
<path d="M828.141 50.3036C827.327 50.4681 826.66 50.8217 826.114 51.392C825.687 51.8363 825.495 52.2183 825.509 52.6186C825.522 52.9819 825.654 53.2297 825.925 53.4088C826.393 53.7117 827.001 53.6715 827.453 53.3107L827.684 53.1221L827.723 53.3368C827.775 53.5878 827.957 53.8495 828.143 53.9317C828.483 54.0816 829.075 53.9102 829.339 53.578C829.468 53.4199 829.468 53.4199 829.531 53.5228C829.583 53.6104 829.575 53.7056 829.492 53.962C829.032 55.4728 827.059 57.0381 824.171 58.2136C823.57 58.4539 822.031 59.2906 822.344 59.2781C822.57 59.269 825.132 58.0758 826.006 57.6137C827.907 56.6095 829.422 55.2041 829.736 54.1579L829.819 53.8962L830.137 53.8888C830.325 53.8812 830.481 53.8539 830.523 53.8101C830.725 53.5963 830.717 53.8128 830.504 54.5227C829.977 56.2735 828.901 57.7562 827.401 58.8182C827.006 59.0977 826.889 59.0614 826.993 59.0994C827.08 59.1328 827.257 59.172 827.51 59.0089C828.634 58.2837 829.769 56.9621 830.367 55.6989C830.573 55.2582 830.953 54.104 830.948 53.9354C830.943 53.8091 831.008 53.8065 831.136 53.9332C831.393 54.1918 831.915 54.1446 832.217 53.8319L832.389 53.6563L832.47 53.8376C832.517 53.9412 832.585 54.0386 832.618 54.0531C832.695 54.0975 832.717 54.7189 832.664 55.2167C832.482 56.8324 831.655 58.3157 830.409 59.2568C830.39 59.2674 831.137 59.2192 831.284 59.2661C831.284 59.2661 830.725 59.3496 831.221 58.8604C832.321 57.7722 832.94 56.3342 832.958 54.8464L832.969 54.2289L833.233 54.2184C833.529 54.2065 833.864 54.0508 833.987 53.8613C834.192 53.5577 833.953 53.5146 833.677 53.8051C833.526 53.9641 833.457 53.9985 833.258 54.0064C833.064 54.0142 832.988 53.9856 832.854 53.8591C832.698 53.7125 832.692 53.6863 832.675 53.2071C832.658 52.7121 832.658 52.7068 832.529 52.7278C832.427 52.7424 832.386 52.8074 832.319 53.0526C832.233 53.3672 832.07 53.6532 831.892 53.808C831.604 54.0568 831.229 53.824 831.154 53.3471C831.127 53.19 831.118 52.932 831.128 52.7733C831.139 52.6147 831.139 52.467 831.128 52.4411C831.088 52.3795 830.895 52.4083 830.875 52.4776C830.866 52.5149 830.819 52.7119 830.777 52.9139C830.674 53.3663 830.411 53.6985 830.142 53.7093C829.894 53.7192 829.785 53.539 829.729 53.0192C829.695 52.6514 829.671 52.5943 829.591 52.5976C829.521 52.6004 829.464 52.6817 829.396 52.8954C829.163 53.6272 828.572 54.0042 828.193 53.6607C828.054 53.5345 828.047 53.4978 828.024 52.9872C828.009 52.5396 827.989 52.4455 827.919 52.4377C827.87 52.4291 827.791 52.4903 827.735 52.5717C827.361 53.1456 826.913 53.4641 826.556 53.4099C826.095 53.3387 825.746 52.9202 825.796 52.4963C825.89 51.7754 826.788 50.9274 827.812 50.6069C828.292 50.4558 830.08 50.379 830.812 50.4868C831.782 50.622 832.48 50.8472 833.152 51.2474C834.027 51.7661 834.496 52.3801 834.682 53.2428C835.024 54.8481 834.104 57.4056 832.64 58.9038C832.364 59.1838 832.346 59.2636 832.55 59.2554C832.749 59.2475 833.444 58.4392 833.898 57.6933C835.067 55.7745 835.376 53.4945 834.633 52.2692C834.02 51.2549 832.642 50.5296 830.875 50.2944C830.193 50.2057 828.624 50.2105 828.141 50.3036Z" fill="#EA580C" stroke="#EA580C" stroke-width="0.8"/>
<path d="M827.329 12.102C827.248 12.2363 826.724 14.4655 826.711 14.7072C826.711 14.7744 826.872 14.8012 827.074 14.7744C827.409 14.7341 827.45 14.6535 827.678 13.6598C828.027 12.102 828.027 12.0617 827.691 12.008C827.544 11.9811 827.369 12.0214 827.329 12.102Z" fill="#1F2937" stroke="#EA580C"/>
<path d="M820.668 12.8545C820.668 12.9082 820.95 13.4185 821.299 14.0094C821.796 14.8152 822.011 15.0703 822.239 15.0703C822.4 15.0703 822.561 15.03 822.588 14.9629C822.629 14.9092 822.373 14.4123 822.024 13.8617C821.527 13.056 821.326 12.8411 821.031 12.8142C820.829 12.7874 820.668 12.8142 820.668 12.8545Z" fill="#1F2937" stroke="#EA580C"/>
<path d="M831.706 15.7417C831.089 16.1714 830.592 16.5743 830.592 16.6414C830.592 16.6952 830.74 16.7623 830.901 16.7892C831.223 16.816 833.291 15.4194 833.398 15.0971C833.519 14.7077 832.754 15.0031 831.706 15.7417Z" fill="#1F2937" stroke="#EA580C"/>
<path d="M824.575 17.971C823.353 18.2933 822.52 19.0856 821.997 20.4016C821.741 21.0462 821.688 21.4357 821.688 22.7248C821.674 24.0946 821.715 24.3498 822.01 24.9406C822.789 26.5253 824.28 27.4519 826.106 27.4519C829.074 27.4787 831.101 25.6792 830.819 23.2889C830.564 21.0865 828.456 19.7302 826.294 20.3479C825.072 20.7105 824.387 21.6237 824.387 22.886C824.387 23.4903 824.454 23.7589 824.736 24.1886C825.528 25.3838 827.019 25.5718 827.852 24.5915C828.402 23.9335 828.241 22.8591 827.597 22.8591C827.153 22.8591 827.113 22.9666 827.355 23.3963C827.529 23.7052 827.543 23.8395 827.409 24.1215C827.261 24.4438 827.18 24.4706 826.455 24.4706C825.743 24.4706 825.649 24.4303 825.421 24.108C825.112 23.638 825.018 22.5771 825.233 22.0534C825.609 21.1537 826.912 20.4553 827.825 20.6568C828.483 20.7911 829.221 21.3282 829.624 21.9325C830.148 22.7248 830.229 24.0677 829.799 24.9272C829.168 26.2432 827.771 27.0221 826.052 27.0221C824.481 27.0221 823.42 26.3104 822.735 24.8063C822.131 23.4634 822.211 21.664 822.937 20.0928C823.595 18.6693 824.481 18.2396 826.549 18.3067C828.026 18.3604 828.389 18.1724 827.247 17.9307C826.24 17.7293 825.434 17.7427 824.575 17.971Z" fill="#1F2937" stroke="#EA580C"/>
<path d="M816.236 18.8837C816.236 19.1791 816.317 19.1925 818.09 19.3C819.365 19.3671 819.594 19.3537 819.594 19.1791C819.594 18.8837 819.526 18.8702 817.821 18.7628C816.411 18.6822 816.236 18.6957 816.236 18.8837Z" fill="#1F2937" stroke="#EA580C"/>
<path d="M835.131 19.2463C834.997 19.3268 834.433 19.4745 833.869 19.5685C832.808 19.7566 832.633 19.8371 832.835 20.0386C833.117 20.3206 835.977 19.6491 835.977 19.2865C835.977 19.0582 835.48 19.0448 835.131 19.2463Z" fill="#1F2937" stroke="#EA580C"/>
<path d="M833.559 25.3434C833.438 25.4911 833.478 25.5717 833.8 25.7328C834.579 26.1357 836.258 26.7534 836.58 26.7534C836.983 26.7534 837.158 26.5117 836.822 26.4043C836.527 26.3103 834.861 25.6522 834.203 25.3568C833.787 25.1822 833.693 25.1822 833.559 25.3434Z" fill="#1F2937" stroke="#EA580C"/>
<path d="M818.586 26.0686C818.291 26.2029 817.633 26.4177 817.109 26.552C816.075 26.8206 815.806 26.9683 816.129 27.0892C816.558 27.2637 819.862 26.2297 819.862 25.9343C819.862 25.7328 819.163 25.8134 818.586 26.0686Z" fill="#1F2937" stroke="#EA580C"/>
<path d="M830.537 29.0364C830.43 29.1975 830.739 29.4661 831.974 30.339C832.74 30.8627 832.928 30.9433 833.183 30.8224C833.465 30.7015 833.438 30.6747 832.807 30.245C832.444 29.9898 831.907 29.5869 831.598 29.3452C831.034 28.8886 830.685 28.7946 830.537 29.0364Z" fill="#1F2937" stroke="#EA580C"/>
<path d="M821.756 31.8024C821.407 32.9573 821.353 33.2662 821.501 33.3468C821.743 33.5079 821.823 33.4945 821.971 33.293C822.159 33.0647 822.938 30.5401 822.844 30.4461C822.804 30.4058 822.642 30.3789 822.481 30.3789C822.226 30.3789 822.132 30.567 821.756 31.8024Z" fill="#1F2937" stroke="#EA580C"/>
<path d="M826.898 30.8492C826.791 31.1044 827.046 32.3667 827.328 33.0381C827.476 33.3873 827.583 33.4813 827.811 33.441C828.16 33.3873 828.16 33.4007 827.758 31.8564C827.529 31.0372 827.382 30.7015 827.207 30.6746C827.086 30.6478 826.938 30.7284 826.898 30.8492Z" fill="#1F2937" stroke="#EA580C"/>
<path d="M1 59.0003L991 59" stroke="#EA580C" stroke-width="2" stroke-linecap="square" stroke-linejoin="round"/>
</svg>
